<svg xmlns="http://www.w3.org/2000/svg" width="48" height="48" viewBox="0 0 128 128" fill="none">
  <path d="M20 48h20.8l10.4 44.5a12 12 0 0 0 11.7 9.5H92a8 8 0 1 0 0-16H66.7c-1.9 0-3.6-1.3-4-3.2L59 72h29.3a8 8 0 0 0 7.6-5.5l8-24A8 8 0 0 0 96 34H40a8 8 0 0 0-7.7 6.1L31 42H20a6 6 0 1 0 0 12Z" fill="#1F7DD8"/>
  <circle cx="54" cy="102" r="8" fill="#1F7DD8"/><circle cx="86" cy="102" r="8" fill="#1F7DD8"/>
  <g transform="translate(58 12)">
    <circle cx="22" cy="34" r="24" fill="#14A084" opacity=".16"/>
    <path d="M22 10a24 24 0 1 1 0 48 24 24 0 0 1 0-48Zm0 8a16 16 0 1 0 0 32 16 16 0 0 0 0-32Z" fill="#14A084"/>
    <circle cx="22" cy="34" r="6.5" fill="#14A084"/>
    <circle cx="36" cy="12" r="7" fill="#14A084"/>
  </g>
</svg>
